<?xml version="1.0" encoding="UTF-8" standalone="no"?><!DOCTYPE svg PUBLIC "-//W3C//DTD SVG 1.1//EN" "http://www.w3.org/Graphics/SVG/1.1/DTD/svg11.dtd"><svg width="100%" height="100%" viewBox="0 0 166 62" version="1.1" xmlns="http://www.w3.org/2000/svg" xmlns:xlink="http://www.w3.org/1999/xlink" xml:space="preserve" xmlns:serif="http://www.serif.com/" style="fill-rule:evenodd;clip-rule:evenodd;stroke-linejoin:round;stroke-miterlimit:2;"><g id="g2739"><g id="g11347"><g id="text5063-9-0-1"><text x="66.639px" y="50.073px" style="font-family:'Helvetica';font-size:11px;">V<tspan x="73.783px 76.227px " y="50.073px 50.073px ">ie</tspan>wer</text></g><g id="text3216-6"><text x="65.656px" y="38.032px" style="font-family:'ArialRoundedMTBold', 'Arial Rounded MT Bold', sans-serif;font-size:24px;fill:#1d4697;">N-P<tspan x="105.781px 122.445px 140.21px " y="38.032px 38.032px 38.032px ">ACS</tspan></text></g><g id="g11317"><path id="path3949-9-8-9" d="M9.806,2.86c-2.65,0 -4.83,2.305 -4.83,5.107l-0,48.297c-0,2.801 2.18,5.106 4.83,5.107l48.849,-0c-0,-0 0,-0 0.001,-0c2.649,-0 4.83,-2.306 4.83,-5.107l0,-48.297c0,-2.802 -2.181,-5.107 -4.83,-5.107c-0.001,-0 -0.001,-0 -0.001,-0l-48.849,-0Z" style="fill:#e9ecf9;fill-rule:nonzero;"/><path id="path4655-4" d="M53.942,32.299c-0.437,-0.112 -0.858,-0.421 -1.81,-1.325c-1.626,-1.546 -4.24,-4.237 -4.24,-4.365c-0,-0.044 0.328,-0.348 0.73,-0.676c0.402,-0.328 0.999,-0.925 1.327,-1.327c0.328,-0.401 0.632,-0.73 0.675,-0.73c0.141,0 2.931,2.725 4.537,4.431c1.132,1.203 1.298,1.559 1.137,2.447c-0.063,0.349 -0.2,0.577 -0.566,0.942c-0.553,0.551 -1.176,0.761 -1.79,0.603Z" style="fill:#b04fcd;fill-rule:nonzero;"/><g id="text5063-9-0-1-4-1-0"><text x="42.817px" y="52.704px" style="font-family:'Helvetica-Bold', 'Helvetica';font-weight:700;font-size:12px;fill:#00aaca;">V</text></g><path id="path1418-2-4-6" d="M24.391,54.004c-0.511,-0.286 -1.126,-0.678 -1.367,-0.873c-0.241,-0.194 -0.86,-0.671 -1.375,-1.06c-0.516,-0.388 -1.077,-0.824 -1.247,-0.967c-0.171,-0.144 -0.549,-0.383 -0.84,-0.533c-0.292,-0.149 -0.53,-0.335 -0.53,-0.413c-0,-0.079 -0.161,-0.203 -0.357,-0.278c-0.554,-0.211 -1.719,-1.374 -2.039,-2.035c-0.278,-0.574 -0.401,-1.778 -0.183,-1.779c0.059,-0.001 0.224,-0.286 0.367,-0.635c0.682,-1.659 3.065,-2.344 4.68,-1.346c0.47,0.29 2.189,0.709 2.911,0.709l0.414,0l0,-4.38l-11.897,0l-0.41,-0.439c-0.548,-0.587 -0.542,-1.137 0.019,-1.685l0.429,-0.419l11.859,-0l0,-3.109l-4.062,-0.006c-2.234,-0.004 -4.339,-0.059 -4.677,-0.124c-0.818,-0.159 -1.08,-0.444 -1.061,-1.156c0.028,-1.062 -0.09,-1.036 5.107,-1.116l4.623,-0.07l0.08,-3.179l-2.986,-0c-2.814,-0 -3.009,-0.018 -3.406,-0.3c-0.753,-0.536 -0.8,-1.279 -0.123,-1.956c0.272,-0.272 0.456,-0.288 3.397,-0.288l3.108,0l0,-0.672c0,-1.375 0.46,-2.154 1.272,-2.154c0.812,0 1.272,0.779 1.272,2.154l-0,0.672l3.108,0c2.941,0 3.125,0.016 3.397,0.288c0.663,0.663 0.631,1.391 -0.085,1.954c-0.363,0.286 -0.534,0.302 -3.406,0.302l-3.024,-0l0.04,1.589l0.04,1.59l4.623,0.07c5.197,0.08 5.079,0.054 5.107,1.116c0.018,0.69 -0.226,0.976 -0.984,1.152c-0.303,0.07 -2.41,0.129 -4.683,0.131l-4.133,0.003l-0,3.109l11.947,-0l0.385,0.438c0.516,0.588 0.506,1.158 -0.028,1.692l-0.413,0.413l-11.891,0l-0,4.38l0.414,0c0.723,0 2.441,-0.419 2.913,-0.71c0.653,-0.404 1.695,-0.569 2.504,-0.397c0.933,0.198 1.965,1.034 2.216,1.794c0.107,0.322 0.247,0.585 0.312,0.585c0.065,0 0.119,0.278 0.119,0.618c-0,1.045 -0.525,1.778 -2.455,3.43c-0.146,0.124 -0.415,0.304 -0.6,0.4c-0.33,0.171 -1.224,0.869 -1.815,1.416c-0.168,0.156 -0.587,0.474 -0.932,0.707c-0.345,0.233 -0.721,0.513 -0.836,0.622c-0.114,0.109 -0.725,0.443 -1.357,0.742c-1.523,0.72 -2.176,0.72 -3.461,0.002l-0,0.001Zm-1.895,-4.327c0.376,-0.156 0.575,-0.387 0.864,-0.997c0.282,-0.595 0.335,-0.833 0.214,-0.954c-0.089,-0.089 -0.162,-0.284 -0.162,-0.432c0,-0.498 -0.582,-1.325 -1.108,-1.576c-0.842,-0.401 -1.85,-0.441 -2.519,-0.1c-0.9,0.46 -1.284,1.614 -0.886,2.661c0.184,0.484 0.939,1.257 1.41,1.445c0.52,0.208 1.635,0.184 2.187,-0.047l0,0Zm9.347,0.054c0.507,-0.193 1.259,-0.944 1.452,-1.451c0.544,-1.432 -0.405,-2.922 -1.858,-2.919c-1.211,0.002 -2.397,0.752 -2.585,1.637c-0.048,0.226 -0.148,0.522 -0.221,0.658c-0.08,0.147 -0.083,0.348 -0.01,0.494c0.069,0.136 0.229,0.489 0.356,0.785c0.153,0.356 0.385,0.604 0.689,0.736c0.548,0.238 1.629,0.268 2.176,0.06l0.001,0Z" style="fill:#1d4697;fill-rule:nonzero;"/><path id="path4657-6" d="M40.541,26.426c-0.914,-0.182 -2.494,-0.79 -3.108,-1.197c-1.151,-0.762 -2.16,-1.99 -3.001,-3.649c-0.833,-1.646 -0.966,-4.153 -0.32,-6.041c0.912,-2.665 2.777,-4.53 5.442,-5.443c1.888,-0.646 4.395,-0.513 6.041,0.321c2.318,1.173 3.635,2.53 4.367,4.497c0.929,2.497 0.835,4.763 -0.297,7.136c-0.545,1.143 -1.631,2.374 -2.752,3.118c-1.793,1.19 -4.26,1.677 -6.372,1.258Zm3.61,-2.009c2.039,-0.723 3.621,-2.332 4.328,-4.401c0.292,-0.858 0.266,-3.048 -0.048,-3.903c-0.764,-2.084 -2.37,-3.68 -4.229,-4.203c-1.706,-0.48 -3.664,-0.313 -5.232,0.448c-0.884,0.428 -2.188,1.752 -2.634,2.674c-0.186,0.386 -0.339,0.771 -0.339,0.856c0,0.085 -0.075,0.377 -0.167,0.647c-0.246,0.726 -0.223,2.488 0.046,3.452c0.645,2.31 2.558,4.088 4.973,4.622c0.705,0.156 2.636,0.044 3.302,-0.192l0,-0Z" style="fill:#b04fcd;fill-rule:nonzero;"/></g></g><rect id="rect2723" x="0" y="0" width="165.704" height="61.755" style="fill:none;"/></g></svg>